<?xml version="1.0" standalone="no"?>
<!DOCTYPE svg PUBLIC "-//W3C//DTD SVG 20010904//EN"
 "http://www.w3.org/TR/2001/REC-SVG-20010904/DTD/svg10.dtd">
<svg version="1.0" xmlns="http://www.w3.org/2000/svg"
 width="144.000000pt" height="144.000000pt" viewBox="0 0 144.000000 144.000000"
 preserveAspectRatio="xMidYMid meet">
<metadata>
Created by potrace 1.16, written by Peter Selinger 2001-2019
</metadata>
<g transform="translate(0.000000,144.000000) scale(0.100000,-0.100000)"
fill="#000000" stroke="none">
<path d="M8 1093 c1 -192 3 -405 5 -475 l2 -128 301 463 301 462 123 3 c96 2
121 0 117 -10 -2 -7 -193 -301 -423 -653 -404 -618 -418 -642 -424 -698 l-6
-57 718 0 718 0 0 720 0 720 -717 0 -718 0 3 -347z m1422 -43 l0 -89 -37 -11
c-21 -6 -180 -51 -353 -98 -301 -84 -315 -89 -318 -112 -1 -14 17 -184 41
-377 l43 -353 -91 0 -91 0 -43 427 c-37 358 -42 428 -30 432 22 8 863 269 872
270 4 1 7 -39 7 -89z m-146 -379 c9 -30 16 -58 16 -62 0 -8 -98 -39 -122 -39
-16 0 -54 117 -43 129 11 11 120 39 127 32 3 -3 13 -30 22 -60z m-299 -77 c9
-31 14 -62 12 -68 -4 -9 -94 -38 -126 -41 -5 0 -40 129 -36 133 5 6 98 30 117
31 12 1 21 -15 33 -55z m190 -101 c9 -32 18 -63 20 -70 5 -14 -125 -57 -136
-45 -12 12 -40 124 -34 131 7 7 103 38 122 40 7 1 20 -25 28 -56z m-105 -205
c7 -26 10 -53 7 -61 -5 -14 -111 -42 -125 -33 -13 8 -35 117 -25 126 4 5 33
15 63 23 62 15 60 16 80 -55z"/>
</g>
</svg>
